<?xml version="1.0" encoding="UTF-8"?>
<svg enable-background="new 0 0 1673.886 1678.691" version="1.1" viewBox="0 0 1673.886 1678.691" xml:space="preserve" xmlns="http://www.w3.org/2000/svg">
<style type="text/css">
	.st0{fill:#010101;}
</style>
	<path class="st0" d="m473.73 431.52c-70.989 36.216-78.084 143.16-2.707 181.65 24.512 12.215 67.834 13.033 89.364 1.688 74.552-39.289 73.944-146.43 0.071-181.38-25.081-11.866-65.516-12.778-86.728-1.956z"/>
	<path class="st0" d="m799.82 1005c-23.607-58.464-29.269-133.4-29.269-196.48l-0.935 0.087-0.142-3.279-0.01 1e-3 -8e-3 -0.166c-45.391 5.334-36.615 4.112-56.258 11.58 5.744 74.372 4.435 170.96 71.424 276.31 1.509 2.373 11.174 17.001 13.839 16.77 4.887 0.376 35.548-34.787 35.642-40.624 1.461-9.278-16.162-20.331-34.283-64.198z"/>
	<path class="st0" d="m699.32 950.49c0.687-8.82-3.574-44.668-5.174-50.076-2.012-6.8-32.771-22-36.161-23.749-36.424-18.785-77.336-49.821-108.26-74.464-91.029-72.54-146.67-71.75-150.02-68.244-3.8 3.978 13.984 49.83 17.903 60.596 38.014 14.548 80.949 34.872 135.67 78.335 25.352 20.136 145.3 110.02 146.04 77.602z"/>
	<path class="st0" d="m653.86 647.01c1.064 0 4.248-3.577 7.073-7.949 62.011-95.91 25.329-197.04-41.351-289.65-50.549-70.209-81.083-102.2-82.084-102.68-3.385-3.654-46.462 15.221-45.457 17.462-0.385 0.412-0.716 0.843-0.518 1.358l-0.545 0.276c3.587 3.834 1.38 1.396 4.211 4.903-0.016 0.971 0.581 1.712 1.794 2.176 11.439 13.634 27.017 27.549 59.772 70.911 85.444 115.31 83.984 145.65 82.517 192.34-1.361 43.348-3.258 42.625-20.423 77.263l16.54 16.792-2e-3 1e-3c1.247 1.267 16.711 16.793 18.473 16.793z"/>
	<path class="st0" d="m906.94 1395c17.601-6.162 33.934-105.82 10.84-156.24-4.844-10.574-23.615-50.323-34.469-54.65l-0.833-1.109-1.196 1.339c-7.318 3.638-24.702 25.2-36.371 39.08 25.739 51.295 33.99 67.893 28.329 132.07-5.874 25.238-11.508 24.297 12.124 35.284h-2e-3c6.535 3.038 16.377 6.935 21.578 4.23z"/>
	<path class="st0" d="m852.78 889.17c41.296-3.703 57.477-69.361 9.403-93.887-18.247-9.311-27.363-8.775-44.965 2.638-47.221 30.622-18.016 79.73 4.553 89.68l-2e-3 3e-3c1.001 0.442 16.893 4.801 31.011 1.566z"/>
	<path class="st0" d="m1266.7 549.95c6.042-83.882-76.612-124.4-132.46-95.221-78.207 36.066-71.903 150.44 7.87 178.64h-2e-3c60.983 21.563 124.08-26.662 124.59-83.423z"/>
	<path class="st0" d="m1301.4 961.44c-0.147-1.326-2.357-42-8.148-54.485l-0.634-4.776-3.859-0.511c-5.577-3.539-18.149-4.646-24.848-6.125-55.874-16.052-147.36-105.15-214.02-138.94-16.153-8.187-57.019-25.734-63.868-22.478-4.191 0.582 0.043 33.819 0.043 52.928l0.734 0.333 0.074 1.168 0.242 0.114 0.033 0.399c65.094 30.214 79.888 34.935 164.02 102.61 55.422 44.579 76.833 58.71 113.99 65.914l-2e-3 -2e-3c20.943 4.054 28.044 3.542 36.244 3.854z"/>
	<path class="st0" d="m1240.7 1131.1c-36.97-76.115-150.53-65.98-175.65 20.413-13.94 47.951 18.32 105.13 67.084 117.66v2e-3c75.11 19.286 150.5-61.456 108.56-138.08z"/>
	<path class="st0" d="m1094.3 643.54l-2.675-1.2c-2.931 2.887-1.146 1.236-3.648 3.052-5.739 1.833-33.042 27.2-31.108 33.128-2.278 5.352 38.894 27.349 72.204 31.593v-1e-3c9.706 1.236 32.154 1.983 49.884 1.666 27.001-0.487 36.753-2.38 60.074-11.657 90.582-36.04 175.22-120.7 203.65-145.56l-0.226-0.482 0.056-0.053c-3.817-7.985-19.204-41.336-22.807-43.562-1.55-0.959-18.288 13.362-37.198 31.822-200.09 195.35-269.31 95.755-288.2 101.26z"/>
	<path class="st0" d="m1100.8 1446.5c6.609-16.218-136.93-115.83-144.52-106.43-1.236 1.531-9.059 30.151-9.059 41.104 0 12.763 33.986 25.154 36.548 34.609-3.878 7.853-64.342 13.339-145.47-8.734-83.503 17.057-88.98 15.668-56.054 31.896 50.636 25.952 85.64 34.125 122.11 38.222h-2e-3c86.208 9.679 196.64-14.53 196.44-30.667z"/>
	<path class="st0" d="m366.03 925.69c33.668 8.805 99.351-2.034 144.38-23.291l20.733-9.786c-4.743-4.256-40.011-35.898-44.754-40.154-42.319 18.817-85.938 34.189-152.03-4.804-10.515 12.402-26.506 28.412-31.813 46.814-0.534 1.258-2.338 5.617-1.739 6.85-0.277 1.509-0.301 1.464 1.241 2.182 2.276 5.235 58.523 20.765 63.975 22.191l1e-3 -2e-3z"/>
	<path class="st0" d="m544.44 1445.4c5.016-0.112 12.826-9.138 44.694-51.651 57.056-76.114 119.86-171.07 108.1-262.6-5.343-49.815-27.736-79.23-36.384-79.991l-1.589-1.823-0.448 0.457-0.19-0.179-2.25 2.406c-6.514 2.922-13.777 11.935-33.23 33.999 10.692 20.731 35.898 58.697 16.91 115.03-28.88 85.69-128.59 193.15-136.8 214.01-0.783 1.179-1.213 1.926-1.213 2.139 0 0.286 0.603 0.928 1.675 1.833 1.523 3.839 15.893 12.544 19.53 14.733v1e-3c10.683 6.424 20.22 11.664 21.191 11.643z"/>
	<path class="st0" d="m218.71 805.95c3.262 0.887 40.835-42.518 43.092-45.064v-0.212l6e-3 -7e-3c0-25.251-0.921-58.433 4.338-56.951 21.481 6.249 69.951 108.17 79.8 128.17l18.871 7.943 2e-3 -1e-3c12.8 5.388 20.463 8.148 24.993 8.048 24.284 6.055-22.422-118.89-58.113-167.34-26.308-35.709-72.943-82.102-92.306-79.392-9.449-0.878-31.325 33.628-35.97 99.327-2.322 32.846 5.256 99.738 12.069 106.55 0.429 0.429 1.562 0.017 3.218-1.073z"/>
	<path class="st0" d="m226.62 1088.6l0.09 0.137 0.326-0.221c9.601-2.325 54.499-38.022 73.22-58.933 22.386-25.002 54.674-74.019 53.388-78.637 0.199-2.919-6.816-6.377-9.702-7.465-18.457-6.956-26.482-13.324-33.511-13.286l-0.935-0.439-0.119 0.15-0.423-0.25-0.128 0.183c-3.677-0.848-11.582 10.97-13.543 14.074-10.831 17.159-33.074 42.266-37.445 42.266-1.726 0-2.223-8.347-1.103-18.547 8.285-75.35 43.095-116.95 63.176-144.2-3.035-5.689-26.965-52.492-32.478-54.331l-1.927-2.732c-108.48 117-94.309 260.3-67.389 312.55h-2e-3c1.32 2.559 5.623 10.101 8.505 9.681z"/>
	<path class="st0" d="m696.36 1482.8v-0.012c16.224 3.003 51.842 5.052 71.11 4.731 34.857 0.116 32.062-2.66-2.745-33.139-27.761-24.31-27.378-23.092-50.975-23.228-6.464-0.839-8.338-1.855-7.494-3.893 36.335-30.223 86.331-38.837 129.66-43.635 3.904-27.423 7.172-43.162 1.76-49.82l5e-3 -2.421-2.633 0.247c-10.316-5.701-79.005 2.16-154.48 46.959-0.844-0.073-1.258 0.177-1.253 0.746-40.268 24.053-74.806 51.988-74.806 63.979 0 3.7 30.812 28.181 91.854 39.486z"/>
	<path class="st0" d="m1415.9 937.69l4e-3 -1e-3c13.98 22.626 98.539-130.19 64.982-250.04-6.386-22.806-26.886-69.261-31.848-68.505l-0.309-0.489c-62.035 32.083-106.11 114.69-104.43 127.2l-0.904 2.378c4.744 2.558 10.262 7.669 28.005 15.101l10.34 5.576 0.13-0.145 0.266 0.148 2.37-2.936c11.386-7.525 25.381-32.138 36.649-36.732 9.864 3.741 6.755 77.244-16.725 124.76l-12.432 25.161c4.01 10.096 21.6 54.805 23.901 58.528z"/>
	<path class="st0" d="m1360.5 839.51v-2e-3c4.859 2.796 9.091 5.138 9.444 5.209 3.005 0.616 24.942-40.616 23.544-44.258-5.713-14.882-107.94-62.4-177.47-37.405-17.41 5.77-53.358 25.641-53.358 31.926 0 4.163 22.188 24.301 32.801 29.771 8.93 4.603 11.701 4.305 30.03-3.233 30.149-12.398 63.541-11.649 98.914 2.219 14.996 5.878 31.24 12.976 36.098 15.773z"/>
	<path class="st0" d="m1112.7 893.82l1.488-0.936-1.006-0.845c0.016-0.252 0.012-0.505-0.017-0.759 1.404-3.933-16.374-15.304-41.259-32.444-16.375 8.515-111.19 63.74-212.48 63.74-26.312 0-33.999 3.509-50.888 3.532 1.103 7.019 0.899 4.645 0.899 10.412 0 22.523 9.96 42.803 10.874 46.114l0.277 0.933 2.245-0.098c10.293 5.698 151.14 0.413 271.94-75.883 10.168-6.422 16.227-10.211 17.922-13.766z"/>
	<path class="st0" d="m596.95 1057.7c21.03-15.068 21.991-16.495 36.108-31.628l-0.398-0.35 0.117-0.117c-84.664-69.79-146.77-46.778-219.79 0.572-37.919 24.586-169.1 125.22-168.48 130.91-3.837 5.794 17.199 31.237 24.84 41.653l1.269-1.049c1 0.728-0.319 2.9 25.947-20.227 25.823-22.736 89.762-70.668 131.3-98.429 90.6-60.552 112.99-47.191 169.1-21.331z"/>
	<path class="st0" d="m1470.8 1013.3c3.695-27.23 2.749-97.032-2.989-97.22-0.347-0.347-0.557-0.322-0.862-0.237-1.001-0.93-3.918 0.261-3.918 2.516 0 0.143-0.075 0.374-0.215 0.682-8.739 8.719-10.111 13.168-28.938 33.9-14.007 15.421-13.413 21.655-14.714 35.291-0.231 0.409-0.482 0.736-0.748 0.981-29.685-34.74-32.605-47.123-52.921-117.62-25.974-15.178-38.387-23.315-44.808-21.453-13.613-2.625-12.457 125.9 87.07 220.03h2e-3c2.204 2.084 20.223 18.76 23.208 18.427 0.318 0.052 0.486 0.025 0.837-1e-3 9.903 3.773 36.503-36.225 38.996-75.291z"/>
	<path class="st0" d="m1293.4 1495.4c1.098-4.192-17.863-18.84-68.85-66.887-126.42 74.548-232.82 114.05-392.15 113.78-51.981-0.096-153.56 4.149-317.02-77.824-5.701-2.859-41.255-19.927-43.651-18.898l-1.424-0.697-0.966 1.157c-10.452 3.76-51.9 58.974-59.177 67.522l3.766 2.825c9.363 13.098 148.13 91.309 316.02 116.7l4e-3 2e-3c66.791 10.1 186.26 6.224 240.24-3.343 192.5-34.114 324.08-128.93 323.01-133.2 0.321-0.605 0.269-0.777 0.214-1.129z"/>
	<path class="st0" d="m243.47 1221.5l0.111-0.098c-132.04-252.9-158.91-481.55 4.517-771.84-32.027-35.22-35.684-39.067-63.939-72.828l-1.926 2.277c-9.091 5.236-143 188.2-143 459.7 0 60.275 1.488 84.791 7.157 117.95 20.253 118.48 57.892 222.31 110.27 304.18v1e-3c1.38 2.158 14.468 22.08 17.093 22.08 3.531 0 66.937-55.811 69.967-58.587 0.097-0.089-0.044-0.648-0.39-1.612 0.257-0.386 0.321-0.462 0.147-1.22z"/>
	<path class="st0" d="m813.68 342.36c7.082-15.544 7.757-17.585 8.185-20.441 4.285-16.149-41.345-25.328-42.655-23.764-0.376 0.449-0.86 1.135-1.43 2.012-11.434 7.649-60.704 92.895-18.697 181.83 19.438 41.152 44.858 73.859 48.713 72.868 0.347 0.341 0.378 0.329 0.604 0.168 3.343 0.706 33.758-40.987 35.806-43.69l-0.348-0.439 8e-3 -0.01-4e-3 -5e-3 1.638-2.303c-37.387-38.675-46.383-71.451-44.699-124.98 1.734-11.063 7.293-28.98 12.879-41.242z"/>
	<path class="st0" d="m1510 408.76l-1.892-2.75c-68.097 72.795-67.273 72.64-67.273 72.64l0.92 1.842-0.017 0.018 0.284 0.54c2.226 15.902 203.02 315.56 17.337 684.05l-27.779 55.127 0.353 0.38-0.048 0.096c23.618 25.264 16.893 18.049 30.441 32.642v1e-3c25.463 27.428 28.91 27.94 28.945 30.471l-6e-3 1e-3c0.049 3.418 1.467 3.955 3.996 2.011 11.449 7.661 122.75-188.48 136.11-363.08 26.987-279.28-112.24-512.51-121.37-514z"/>
	<path class="st0" d="m942.73 1002c-2.221-2.857-5.559-1.323-54.771 2.837-28.481 96.451-110.17 148.03-143.24 233.93-8.615 22.422-17.131 55.074-10.938 78.147l-4e-3 3e-3 2.001 7.45c82.892-24.89 30.455-3.858 71.752-77.682 29.031-52.227 130.9-166.03 136.05-237.92 0.254-1.763 0.849-6.253-0.846-6.773z"/>
	<path class="st0" d="m605.32 1130.3c-46.312-104.69-184.54-64.772-184.54 36.067 0 36.118 29.121 76.63 63.593 88.471v-1e-3c82.557 28.361 152.29-53.687 120.94-124.54z"/>
	<path class="st0" d="m759.94 686.28c0 0.628 0.327 1.115 0.926 1.468 2.544 3.196 4.002-1.773 37.012-1.849l22.042-0.035 1.77-3.51 0.786-7e-3c35.58-83.511 137.68-178.26 140.01-258.05 0.329-11.243-0.393-21.441-1.602-22.66-0.192-0.193-0.673-0.264-1.399-0.226-2.67-2.969-48.384 17.742-49.392 18.131l-0.508 1.465c-3.71 3.449-4.993 7.793-7.328 16.171-17.626 63.25-52.298 92.492-98.544 162.73-11.185 15.989-43.774 69.4-43.771 83.711l-2e-3 -0.015c0 1e-3 6e-3 2.67 6e-3 2.671l-5e-3 -2e-3z"/>
	<path class="st0" d="m1015.2 1066.6l-0.961-0.961c-2.789 3.409-0.913 1.24-3.566 3.641-11.174 10.113-29.016 49.618-33.037 66.077-25.068 92.192 36.384 149.01 128.02 256.46h-0.017c0.647 0.759 27.55 32.17 28.128 32.983v2e-3c2.259 3.175 5.98 7.135 9.805 6.245 0.656 0.461 1.177 0.18 2.328-0.294 5.396 0.317 22.767-8.944 42.022-28.201l-0.5-0.525c-0.033-2.333-16.57-20.918-36.777-41.333-43.658-44.103-95.734-108.51-109.1-134.93-21.974-43.486-2.262-89.555 9.141-122.47l-0.217-0.254 0.31-0.872c-18.852-18.85-29.393-36.179-35.574-35.571z"/>
	<path class="st0" d="m1176.1 261.53c-13.295-6.782-20.506-10.543-25.811-10.787l-2.386-1.171-1.422 1.694c-11.845 4.149-96.858 130.27-121.02 180.96-18.453 38.724-35.822 83.284-30.02 136.43 0.357 12.466 0.748 28.347 15.907 53.749 4.068 7.357 8.238 13.817 10.891 16.641l-2e-3 -2e-3c8.64 9.198 9.545 8.228 10.842 7.48 0.725 0.618 0.676 0.74 1.853-0.375 6.881-1.768 17.175-18.066 28.361-30.202l-2.135-5.237c-1.829-25.628-74.96-88.508 116.77-307.32 23.398-26.701 23.489-28.947-1.831-41.864z"/>
	<path class="st0" d="m595.95 803.69h-2e-3c3.514 2.893 20.354 16.831 21.962 16.294 0 0 90.152-48.745 265.69-45.64v-0.555h2e-3v-3.273c6.12-6.073-6.686-41.729-12.624-50.798l-0.102-0.285h-0.084c-9.721-14.385-159.75 8.874-192.1 17.318-71.201 18.582-103.04 42.196-102.4 47.297-0.523 2.887 17.457 17.824 19.664 19.642z"/>
	<path class="st0" d="m599.14 238.11c-9.596 10.688 51.577 84.875 93.677 112.99h-2e-3c5.399 3.605 21.459 13.693 23.73 13.094 4.207 1.631 15.623-38.538 19.24-49.768l-0.85-0.902 0.11-0.367c-7.702-7.303-31.63-32.75-31.63-36.519 0-6.96 67.306-23.832 146.6 33.842 6.786 5.682 14.115 10.4 17.453 11.325l0.996 0.806 1.582-0.724c7.125 1.369 30.875-11.187 42.97-23.923l9.994-10.523c-26.015-25.246-62.693-66.999-147.27-79.646-101.84-17.601-170.31 20.138-176.6 30.311z"/>
	<path class="st0" d="m987.81 212.1c-23.267-4.763-102.04-6.497-106.22-2.336-0.398 0.396-0.182 1.291 0.537 2.551-1.444 2.626 25.488 24.637 41.667 39.886 14.506 13.676 17.262 6.735 59.151 13.663 1.529 0.321 2.921 0.232 0.533 3.719-39.564 41.492-87.154 67.67-132.7 79.615-13.286 3.485-24.488 8.531-25.668 11.564-3.571 9.166-5.81 49.197-6.228 54.125 15.898-1.335 41.268-2.427 68.238-11.684 96.941-33.275 204.02-121.86 206.07-147.57l0.617-1.108-0.692-0.572c-1.944-9.621-58.537-32.274-105.31-41.851z"/>
	<path class="st0" d="m389.24 176.21c-0.8 2.884 69.287 57.992 73.135 58.685l3.155 2.535c138.86-72.38 224.24-101.11 375.67-100.61 118.34 0.392 228.71 15.821 386.13 117.21 10.907-11.382 64.874-66.204 66.062-72.208l0.563-0.588-1.128-0.732c-10.747-13.613-318.68-232.28-717.51-98.505-66.905 22.439-191.64 84.636-186.08 94.214z"/>
	<path class="st0" d="m492.3 702.38c73.137 15.249 133.4-19.223 133.4-26.937 0-3.727-32.878-38.965-33.799-39.967-28.398 14.284-42.901 22.899-92.886 19.939-84.319-15.426-184.42-142.86-218.78-163.81-4.94-3.406-5.575-3.374-9.709 0.492-7.604 6.941-22.848 27.624-22.848 32.461 0 2.409 132.99 155.34 244.62 177.82z"/>
	<path class="st0" d="m1181.6 997.29c-50.07-9.65-104.34 10.248-125.83 27.974l-13.305 10.974c8.274 10.447 23.913 32.049 34.973 35.884l3.354 2.388c37.723-19.276 65.965-32.956 107.48-23.326 62.52 14.505 159.84 86.152 209.37 128.52l0.104-0.095c1.004 0.607 1.558 1.012 2.316 0.799 3.303 1.148 28.107-33.306 27.484-37.652l1.25-2.023c-1-0.788-137.25-125.7-247.19-143.44z"/>
	<path class="st0" d="m959.19 879.3c17.035-26.574 12.111-179.33-65.115-276.45-26.466 31.809-25.366 33.019-34.784 45.615l0.028 0.051-1.025 1.466c52.486 87.026 55.865 126.12 50.967 237.27h2.762l-0.047 0.859c31.644-2.621 40.068 2.343 47.214-8.807z"/>
</svg>
